<!-- Crafity Constellation Icon - 64px - Dark Theme - Optimized ViewBox -->
<svg width="64" height="64" viewBox="0 0 64 64" fill="none" xmlns="http://www.w3.org/2000/svg">
  <!-- Main constellation nodes -->
  <circle cx="16" cy="12" r="3.5" fill="#95C5EF" opacity="1"/>
  <circle cx="48" cy="18" r="4" fill="#95C5EF" opacity="1"/>
  <circle cx="38" cy="40" r="3.7" fill="#95C5EF" opacity="1"/>
  <circle cx="20" cy="46" r="3.2" fill="#95C5EF" opacity="1"/>
  <circle cx="46" cy="54" r="2.8" fill="#95C5EF" opacity="0.95"/>

  <!-- Orange accent nodes -->
  <circle cx="32" cy="28" r="4.2" fill="#FF4500" opacity="1"/>
  <circle cx="12" cy="32" r="2.8" fill="#FF4500" opacity="0.85"/>

  <!-- Secondary dots -->
  <circle cx="26" cy="14" r="2.3" fill="#95C5EF" opacity="0.85"/>
  <circle cx="42" cy="28" r="2.3" fill="#95C5EF" opacity="0.8"/>
  <circle cx="28" cy="36" r="2" fill="#95C5EF" opacity="0.75"/>
  <circle cx="52" cy="34" r="2" fill="#95C5EF" opacity="0.7"/>

  <!-- Tertiary smaller dots -->
  <circle cx="20" cy="20" r="1.5" fill="#95C5EF" opacity="0.6"/>
  <circle cx="38" cy="24" r="1.5" fill="#95C5EF" opacity="0.55"/>
  <circle cx="30" cy="46" r="1.5" fill="#95C5EF" opacity="0.5"/>
  <circle cx="40" cy="50" r="1.3" fill="#95C5EF" opacity="0.45"/>

  <!-- Connection lines (subtle) -->
  <line x1="16" y1="12" x2="26" y2="14" stroke="#95C5EF" stroke-width="0.6" opacity="0.25"/>
  <line x1="26" y1="14" x2="32" y2="28" stroke="#95C5EF" stroke-width="0.6" opacity="0.25"/>
  <line x1="32" y1="28" x2="48" y2="18" stroke="#95C5EF" stroke-width="0.6" opacity="0.25"/>
  <line x1="32" y1="28" x2="42" y2="28" stroke="#95C5EF" stroke-width="0.6" opacity="0.25"/>
  <line x1="32" y1="28" x2="38" y2="40" stroke="#95C5EF" stroke-width="0.6" opacity="0.25"/>
  <line x1="12" y1="32" x2="20" y2="46" stroke="#95C5EF" stroke-width="0.6" opacity="0.25"/>
  <line x1="38" y1="40" x2="46" y2="54" stroke="#95C5EF" stroke-width="0.6" opacity="0.25"/>
  <line x1="42" y1="28" x2="52" y2="34" stroke="#95C5EF" stroke-width="0.6" opacity="0.25"/>

  <!-- Ambient edge dots -->
  <circle cx="6" cy="10" r="1.2" fill="#95C5EF" opacity="0.3"/>
  <circle cx="56" cy="12" r="1.2" fill="#95C5EF" opacity="0.3"/>
  <circle cx="8" cy="54" r="1.2" fill="#95C5EF" opacity="0.3"/>
  <circle cx="54" cy="60" r="1.2" fill="#95C5EF" opacity="0.25"/>
  <circle cx="60" cy="42" r="1" fill="#95C5EF" opacity="0.2"/>
  <circle cx="4" cy="26" r="1" fill="#95C5EF" opacity="0.2"/>
</svg>
