<!-- Crafity Constellation Icon - 48px - Dark Theme - Optimized ViewBox -->
<svg width="48" height="48" viewBox="0 0 48 48" fill="none" xmlns="http://www.w3.org/2000/svg">
  <!-- Main constellation nodes -->
  <circle cx="12" cy="9" r="2.6" fill="#95C5EF" opacity="1"/>
  <circle cx="36" cy="13.5" r="3" fill="#95C5EF" opacity="1"/>
  <circle cx="28.5" cy="30" r="2.8" fill="#95C5EF" opacity="1"/>
  <circle cx="15" cy="34.5" r="2.4" fill="#95C5EF" opacity="1"/>
  <circle cx="34.5" cy="40.5" r="2.1" fill="#95C5EF" opacity="0.95"/>

  <!-- Orange accent nodes -->
  <circle cx="24" cy="21" r="3.1" fill="#FF4500" opacity="1"/>
  <circle cx="9" cy="24" r="2.1" fill="#FF4500" opacity="0.85"/>

  <!-- Secondary dots -->
  <circle cx="19.5" cy="10.5" r="1.7" fill="#95C5EF" opacity="0.85"/>
  <circle cx="31.5" cy="21" r="1.7" fill="#95C5EF" opacity="0.8"/>
  <circle cx="21" cy="27" r="1.5" fill="#95C5EF" opacity="0.75"/>
  <circle cx="39" cy="25.5" r="1.5" fill="#95C5EF" opacity="0.7"/>

  <!-- Tertiary smaller dots -->
  <circle cx="15" cy="15" r="1.1" fill="#95C5EF" opacity="0.6"/>
  <circle cx="28.5" cy="18" r="1.1" fill="#95C5EF" opacity="0.55"/>
  <circle cx="22.5" cy="34.5" r="1.1" fill="#95C5EF" opacity="0.5"/>
  <circle cx="30" cy="37.5" r="1" fill="#95C5EF" opacity="0.45"/>

  <!-- Connection lines (subtle) -->
  <line x1="12" y1="9" x2="19.5" y2="10.5" stroke="#95C5EF" stroke-width="0.5" opacity="0.25"/>
  <line x1="19.5" y1="10.5" x2="24" y2="21" stroke="#95C5EF" stroke-width="0.5" opacity="0.25"/>
  <line x1="24" y1="21" x2="36" y2="13.5" stroke="#95C5EF" stroke-width="0.5" opacity="0.25"/>
  <line x1="24" y1="21" x2="31.5" y2="21" stroke="#95C5EF" stroke-width="0.5" opacity="0.25"/>
  <line x1="24" y1="21" x2="28.5" y2="30" stroke="#95C5EF" stroke-width="0.5" opacity="0.25"/>
  <line x1="9" y1="24" x2="15" y2="34.5" stroke="#95C5EF" stroke-width="0.5" opacity="0.25"/>
  <line x1="28.5" y1="30" x2="34.5" y2="40.5" stroke="#95C5EF" stroke-width="0.5" opacity="0.25"/>
  <line x1="31.5" y1="21" x2="39" y2="25.5" stroke="#95C5EF" stroke-width="0.5" opacity="0.25"/>

  <!-- Ambient edge dots -->
  <circle cx="4.5" cy="7.5" r="0.9" fill="#95C5EF" opacity="0.3"/>
  <circle cx="42" cy="9" r="0.9" fill="#95C5EF" opacity="0.3"/>
  <circle cx="6" cy="40.5" r="0.9" fill="#95C5EF" opacity="0.3"/>
  <circle cx="40.5" cy="45" r="0.9" fill="#95C5EF" opacity="0.25"/>
  <circle cx="45" cy="31.5" r="0.8" fill="#95C5EF" opacity="0.2"/>
  <circle cx="3" cy="19.5" r="0.8" fill="#95C5EF" opacity="0.2"/>
</svg>
