<?xml version="1.0" encoding="UTF-8"?> <svg xmlns="http://www.w3.org/2000/svg" viewBox="0 0 502.11 251.99"><defs><style>.cls-1{fill:#272525;}</style></defs><title>Mediamonks</title><g id="Layer_2" data-name="Layer 2"><g id="Layer_1-2" data-name="Layer 1"><polygon class="cls-1" points="122 0 122 113.94 202.04 113.94 202.04 96.8 140.24 96.8 140.24 65.53 184.74 65.53 184.74 48.4 140.24 48.4 140.24 17.13 202.04 17.13 202.04 0 122 0"></polygon><path class="cls-1" d="M200.61,146.32c-6-5.85-13.49-8.27-26.12-8.27h-19c-12.63,0-20.17,2.41-26.12,8.27-5.83,5.57-8,12.94-8,25.91v45.61c0,12.95,2.19,20.34,8,26,6,5.78,13.49,8.18,26.12,8.18h19c12.63,0,20.17-2.4,26.12-8.18,5.83-5.63,8-13,8-26V172.23c0-13-2.19-20.33-8-25.91m-10.22,68.07c0,10.58-.68,14.14-3.44,17.09-2.71,2.73-5.92,3.37-17,3.37h-9.83c-11.12,0-14.33-.64-17-3.37-2.76-2.95-3.44-6.51-3.44-17.09v-38.7c0-10.64.67-14.22,3.44-17.11,2.71-2.69,5.92-3.4,17-3.4h9.83c11.12,0,14.32.71,17,3.4,2.76,2.89,3.44,6.46,3.44,17.11Z"></path><path class="cls-1" d="M296.51,8.27C290.56,2.42,283,0,270.39,0h-50V113.94h50c12.63,0,20.17-2.4,26.12-8.18,5.83-5.63,8-13,8-26V34.17c0-13-2.19-20.33-8-25.91M286.28,76.34c0,10.58-.68,14.14-3.44,17.09-2.71,2.73-5.91,3.37-17,3.37H238.62V17.13h27.19c11.12,0,14.32.71,17,3.4,2.76,2.89,3.44,6.46,3.44,17.1Z"></path><polygon class="cls-1" points="390.55 17.13 390.55 0 318.45 0 318.45 17.13 345.38 17.13 345.38 96.8 318.45 96.8 318.45 113.94 390.55 113.94 390.55 96.8 363.63 96.8 363.63 17.13 390.55 17.13"></polygon><path class="cls-1" d="M488.25,51.26,466.91,5a8.17,8.17,0,0,0-7.5-5H436.62a8.17,8.17,0,0,0-7.5,5L407.78,51.26a19.45,19.45,0,0,0-1.84,8v54.66h18.24V82.66h47.66v31.27h18.24V59.27a19.45,19.45,0,0,0-1.83-8M471.84,65.53H424.19V58.14l19.33-41h9l19.32,41Z"></path><polygon class="cls-1" points="293.19 195.12 245.53 138.05 227.28 138.05 227.28 251.99 245.53 251.99 245.53 163.62 293.19 220.68 293.19 251.99 311.43 251.99 311.43 138.05 293.19 138.05 293.19 195.12"></polygon><path class="cls-1" d="M463.73,186.87c-13-5.59-26.65-10.74-26.65-19.86,0-6.28,4.88-11.82,11-11.82h25a11,11,0,0,1,11,11v3h17.92v-2.41a28.91,28.91,0,0,0-29-28.75H448.83a29,29,0,0,0-28.88,29c0,20.42,21.56,28.84,38.39,36.17,13,5.59,26.65,10.73,26.65,19.86,0,6.28-4.89,11.82-11,11.82h-25a11,11,0,0,1-11-11v-3H419.95v2.4a28.91,28.91,0,0,0,29,28.76h24.32a29,29,0,0,0,28.88-29c0-20.42-21.56-28.84-38.39-36.17"></path><polygon class="cls-1" points="365.84 194.42 414.41 138.05 390.49 138.05 351.17 186.45 351.17 138.05 332.93 138.05 332.93 251.99 351.17 251.99 351.17 203.58 392.2 251.99 416.63 251.99 365.84 194.42"></polygon><polygon class="cls-1" points="84.15 28.85 58.59 65.53 43.8 65.53 18.25 28.85 18.25 113.94 0 113.94 0 0 18.25 0 51.2 47.3 84.15 0 102.39 0 102.39 113.94 84.15 113.94 84.15 28.85"></polygon><polygon class="cls-1" points="84.15 166.9 58.59 203.59 43.8 203.59 18.25 166.9 18.25 251.99 0 251.99 0 138.05 18.25 138.05 51.2 185.36 84.15 138.05 102.39 138.05 102.39 251.99 84.15 251.99 84.15 166.9"></polygon></g></g></svg> 