<?xml version="1.0" encoding="utf-8"?>
<!-- Generator: Adobe Illustrator 16.0.0, SVG Export Plug-In . SVG Version: 6.00 Build 0)  -->
<!DOCTYPE svg PUBLIC "-//W3C//DTD SVG 1.1//EN" "http://www.w3.org/Graphics/SVG/1.1/DTD/svg11.dtd">
<svg version="1.1" id="Layer_1" xmlns="http://www.w3.org/2000/svg" xmlns:xlink="http://www.w3.org/1999/xlink" x="0px" y="-100px"
	 width="600px" height="400px" viewBox="0 0 600 400" enable-background="new 0 0 600 400" xml:space="preserve">
<path d="M112.847,332.996c-4.479,0-7.981,3.133-7.981,7.701c0,4.576,3.521,7.691,7.981,7.691c4.455,0,7.983-3.14,7.983-7.691
	C120.831,336.129,117.323,332.996,112.847,332.996L112.847,332.996L112.847,332.996L112.847,332.996z M112.847,346.185
	c-3.191,0-5.56-2.333-5.56-5.487c0-3.148,2.351-5.5,5.56-5.5c3.174,0,5.559,2.386,5.559,5.5
	C118.407,343.796,115.997,346.185,112.847,346.185L112.847,346.185L112.847,346.185L112.847,346.185z"/>
<polygon points="190.526,306.055 151.665,306.055 156.081,238.507 130.843,306.055 94.759,306.055 152.017,153.379 190.414,153.379 
	185.981,221.851 211.697,153.379 247.787,153.379 "/>
<polygon points="195.213,306.055 252.469,153.379 288.555,153.379 231.3,306.055 "/>
<path d="M90.598,253.428c-50.43,59.221-97.999,138.018-55.981,174.301c40.715,35.164,91.606,14.343,126.304,0.465
	c34.703-13.882,418.237-180.434,418.237-180.434c3.7-1.852,3.011-4.166-1.62-3.01c-1.863,0.466-417.54,113.117-417.54,113.117
	C107.253,372.676,47.108,340.403,90.598,253.428L90.598,253.428L90.598,253.428L90.598,253.428z"/>
<path d="M114.208,341.241c1.12-0.056,1.995-0.635,1.995-2.183c0-1.998-1.305-2.502-3.489-2.502l0,0h-3.135v8.285h2.093v-3.527h0.353
	l1.904,3.527h2.404L114.208,341.241L114.208,341.241L114.208,341.241z M112.865,339.895h-1.189v-1.921h1.005l0,0
	c0.617,0,1.325,0.074,1.325,0.877C114.005,339.712,113.594,339.895,112.865,339.895L112.865,339.895L112.865,339.895
	L112.865,339.895z"/>
<path d="M475.607,152.914c-4.479,0-7.984,3.135-7.984,7.703c0,4.569,3.526,7.684,7.984,7.684c4.454,0,7.981-3.135,7.981-7.684
	C483.595,156.049,480.087,152.914,475.607,152.914L475.607,152.914L475.607,152.914L475.607,152.914z M475.607,166.105
	c-3.193,0-5.563-2.332-5.563-5.485c0-3.152,2.351-5.501,5.563-5.501c3.171,0,5.559,2.386,5.559,5.501
	C481.165,163.716,478.762,166.105,475.607,166.105L475.607,166.105L475.607,166.105L475.607,166.105z"/>
<path d="M476.972,161.157c1.116-0.054,1.997-0.632,1.997-2.183c0-1.997-1.312-2.5-3.491-2.5l0,0h-3.132v8.283h2.086v-3.525h0.355
	l1.901,3.525h2.408L476.972,161.157L476.972,161.157L476.972,161.157z M475.624,159.816h-1.192v-1.923h1.012l0,0
	c0.611,0,1.321,0.075,1.321,0.878C476.765,159.629,476.354,159.816,475.624,159.816L475.624,159.816L475.624,159.816
	L475.624,159.816z"/>
<path d="M451.829,178.826l9.696-25.447h-72.311h-0.323h-37.478l-37.804,45.804l17.455-45.804h-36.552l-56.798,152.675h36.087
	l24.251-63.848l1.657,63.848l110.73-0.242l10.541-29.369h-42.101l13.832-37.009h34.696l10.68-28.454h-34.698l11.896-32.154H451.829
	L451.829,178.826L451.829,178.826z M335.514,295.873l-2.313-79.572l54.563-59.906L335.514,295.873L335.514,295.873L335.514,295.873z
	"/>
</svg>
