<?xml version="1.0" encoding="UTF-8"?>
<svg width="500px" height="500px" viewBox="0 0 500 500" xmlns="http://www.w3.org/2000/svg" xmlns:xlink="http://www.w3.org/1999/xlink" version="1.1">
 <!-- Generated by Pixelmator Pro 2.0.3 -->
 <g id="Layer_2">
  <g id="Layer_1-2">
   <g id="VQPCg2.tif">
    <path id="Path" d="M0 0 L500 0 500 500 0 500 Z M127.5 335.1 C128.5 336.8 129.2 338 129.9 339.1 142.3 359.5 154.7 379.9 167.1 400.3 168.2 402.5 170.4 403.8 172.9 403.9 174.3 404 175.8 404.3 177.2 404.3 185.9 404.7 194.5 404.5 203.2 403.8 204.1 403.7 204.9 403.5 205.7 403.2 206.7 402.9 207.5 402 207.6 400.9 207.6 400.1 207.9 399.4 208 398.6 208.2 393.7 208.4 388.8 208.5 383.9 208.6 375.3 208.7 366.7 208.7 358.1 208.6 331.4 209.1 304.6 208.2 277.9 208.1 274.4 208.2 270.9 208 267.5 207.9 266.2 207.7 264.9 207.5 263.6 205.6 262 203.2 261.3 200.8 261.5 194.6 261.3 188.4 261.3 182.3 261.3 178.9 261.3 175.6 261.5 172.2 261.9 168.7 262.3 167.8 263.4 167.7 266.7 167.5 274.8 167.2 282.9 167.1 291 167 304.2 167 317.5 167 330.7 L167 333.1 C164.8 330.1 163.1 327 161.3 323.9 153.9 311.3 146.5 298.7 139.1 286.1 135.1 279.2 131.1 272.3 127.2 265.3 126.4 263.3 124.5 261.9 122.3 261.8 121 261.8 119.6 261.4 118.3 261.4 112.6 261.3 106.9 261.2 101.2 261.3 97.6 261.3 93.9 261.6 90.3 262 87.5 262.3 86.6 263.3 86.5 266.1 86.3 270.4 86.1 274.8 86 279.1 85.9 286.5 85.8 294 85.8 301.4 85.8 322.7 85.7 344.1 85.8 365.4 85.8 376.6 86.2 387.8 86.4 398.9 86.5 402.3 87.5 403.4 90.8 403.8 92.8 404.1 94.8 404.2 96.8 404.3 102.3 404.3 107.8 404.5 113.3 404.3 116.2 404.3 119.1 404.1 121.9 403.7 125.3 403.2 126.4 402.8 126.7 398.9 126.7 398.7 126.7 398.5 126.7 398.3 126.9 392.8 127.1 387.3 127.2 381.8 127.3 367.3 127.3 352.8 127.4 338.4 Z M126.9 218.6 C128.7 218.7 130 218.9 131.3 218.9 135.7 218.9 140.2 218.7 144.6 218.6 150 218.4 155.4 217.8 160.6 216.8 169.6 215.3 178.3 212.2 186.2 207.6 195 202.6 202 195.1 206.5 186 210.2 178.4 212.2 170 212.4 161.6 212.6 157.7 212.2 153.7 212.1 149.9 211.8 145.3 211 140.7 209.7 136.3 207.4 128.3 203.1 121 197.2 115.2 190.8 109 183.1 104.4 174.6 101.7 162.6 97.7 150.1 95.7 137.5 95.8 125.8 95.8 114.2 96.1 102.5 96.3 98.5 96.3 94.4 96.7 90.4 97 87.6 97.2 86.6 98.2 86.4 100.9 86.2 104.7 86 108.6 85.9 112.4 85.8 120.3 85.7 128.2 85.7 136.2 85.7 152.7 85.6 169.2 85.7 185.7 85.8 200.6 86.1 215.4 86.3 230.3 86.3 231.6 86.3 233 86.4 234.3 86.6 237 87.3 237.8 90 238.3 91.3 238.6 92.7 238.7 94 238.8 100.6 238.9 107.1 239 113.7 238.9 116.9 238.8 120 238.6 123.2 238.2 125.5 237.9 126.4 237 126.7 234.7 126.8 233.6 126.8 232.6 126.8 231.5 126.9 227.3 126.9 223.1 126.9 218.6 Z M416.3 386.9 C415.9 385.9 415.8 385.2 415.5 384.6 412 377.6 407.8 370.8 403.2 364.5 401.6 362.3 399.8 360.3 398 358.3 397.1 357.5 396.1 356.7 395 356.1 393 357.3 391.3 358.3 389.6 359.3 380.1 364.8 370.1 367.8 359 366.3 351.8 365.5 345 362.3 339.7 357.3 329.8 347.6 327.5 335.6 330.7 322.5 334.1 308.4 345.9 299.9 359.6 298.4 370.1 297.1 380.8 299.6 389.7 305.3 390.5 305.8 391.4 306.2 392.3 306.6 393 306 393.7 305.4 394.4 304.8 395.9 303.1 397.4 301.5 398.8 299.8 403.9 293.2 408.3 286 411.8 278.5 412.7 277.3 412.9 275.6 412.3 274.2 401 265.5 387.5 260.2 373.4 258.7 368.8 258.2 364.2 258.1 359.6 258.4 351 258.8 342.6 260.5 334.4 263.3 321.7 267.6 310.6 275.5 302.4 286.1 292.5 298.8 288.2 313.4 287.6 329.2 287.2 337.1 288 345 289.9 352.7 294.3 371.7 306.5 387.8 323.6 397.1 334.6 403 346.7 406.3 359.2 406.7 366.5 407.2 373.9 406.6 381 405 391.4 402.7 401.3 398.3 410 392.1 412 390.6 414 388.8 416.3 386.9 Z M412.8 109.9 C411.8 109.1 411.1 108.4 410.5 108 398.7 99.6 384.8 94.5 370.4 93.5 364.3 93 358.2 93.2 352.2 94.1 344.3 95.1 336.6 97.2 329.3 100.4 317.9 105.3 308.1 113.2 300.8 123.3 292.1 135.4 288.3 149.1 287.6 163.8 287.1 173.2 288.2 182.7 291 191.7 296 208.7 307.4 223.1 322.9 231.8 335.4 239.1 349.2 241.7 363.5 242.1 369.8 242.2 376.2 241.5 382.4 240 394 237.3 404.8 232 413.9 224.5 414.8 223.8 415.6 223 416.5 222.1 416 221 415.7 220 415.2 219.1 412.1 213 408.6 207.2 404.6 201.6 402.7 198.8 400.6 196.2 398.3 193.7 396.2 191.4 395.2 191.4 392.5 193 389.8 194.6 387.4 196 384.7 197.3 374.7 202.5 363.1 203.5 352.5 200.1 345.9 198.1 340.1 194 336.1 188.4 329.5 179.3 328.3 169.1 330.7 158.4 332.3 151 336.7 144.4 343 140.2 352.4 133.5 362.9 132.1 374.1 134.3 379.8 135.4 385.2 137.6 390.1 140.7 391 141.5 392.3 141.8 393.5 141.4 394.4 140.5 395.3 139.6 396.1 138.7 402.7 131 408.1 122.4 412.2 113.2 412.3 112 412.6 111 412.8 109.9 Z M229.9 209.4 C230.5 210.8 231.7 211.7 233.2 212 234.9 212.3 236.6 212.5 238.3 212.6 246.1 212.7 254 212.7 261.8 212.6 263.5 212.6 265.3 212.4 266.9 212 268.7 211.9 270.1 210.4 270 208.6 L270 208.5 C270.1 207 270.4 205.4 270.4 203.9 270.6 195 270.8 186 271 177.1 271 173.7 271 170.4 271 167 270.9 150.4 270.8 133.8 270.6 117.2 270.6 111.5 270.2 105.8 270 100.2 269.9 97.7 269.1 96.7 266.6 96.4 264.8 96.1 263 95.9 261.1 95.9 254.1 95.8 247 95.8 240 95.9 237.9 95.9 235.8 96.3 233.7 96.4 232.2 96.5 230.9 97.3 230.2 98.5 230 100.2 229.7 102 229.6 103.7 229.4 112 229 120.3 229 128.6 229 149.5 229.2 170.5 229.3 191.4 229.2 197.5 229.5 203.7 229.6 209.4 Z M269.9 401.8 C270.1 399.5 270.4 397.3 270.4 395.1 270.6 384.5 271 373.9 271 363.2 271 344.2 270.8 325.2 270.6 306.2 270.6 301.4 270.3 296.6 270 291.8 269.9 289.3 269 288.3 266.6 287.9 264.7 287.6 262.8 287.4 260.9 287.4 254.8 287.4 248.7 287.3 242.7 287.4 239.7 287.4 236.8 287.8 233.8 288 232.2 288 230.8 288.9 230.1 290.3 229.9 292.4 229.7 294.4 229.6 296.4 229.4 306.1 229 315.9 229 325.6 229 344.7 229.2 363.8 229.3 382.9 229.3 388.4 229.6 393.9 229.9 399.3 230 402.3 231.1 403.4 234.1 403.7 236.3 404 238.5 404.1 240.7 404.2 245.4 404.3 250.1 404.4 254.9 404.2 258.5 404.2 262 403.9 265.6 403.6 267.3 403.6 268.8 402.9 269.9 401.8 Z M229.1 250 C229 261.6 238.3 271 249.9 271.1 261.5 271.2 270.9 261.9 271 250.3 271.1 238.7 261.8 229.3 250.2 229.2 250.2 229.2 250.2 229.2 250.1 229.2 238.6 229.1 229.1 238.3 229 249.9 229.1 249.9 229.1 249.9 229.1 250 Z" fill="#e60000" fill-opacity="1" stroke="none"/>
    <path id="Path-1" d="M127.6 179.7 L127.6 134.6 C130 134.6 132.3 134.4 134.6 134.4 140.5 134.4 146.3 134.2 152.1 135.7 155 136.4 157.8 137.4 160.5 138.7 166.3 141.5 170.2 147.1 170.8 153.4 171.5 157.5 171 161.7 169.6 165.6 167.5 170.8 163.2 174.9 157.9 176.8 153.4 178.6 148.7 179.5 143.9 179.6 138.5 179.8 133.2 179.7 127.6 179.7 Z" fill="#e60101" fill-opacity="1" stroke="none"/>
   </g>
  </g>
 </g>
</svg>
