<svg width="206" height="241" viewBox="0 0 206 241" fill="none" xmlns="http://www.w3.org/2000/svg">
<path d="M1.05061 24.556C1.05061 24.556 97.0506 -30.4373 205.051 24.556C205.051 24.556 213.308 180.556 101.304 240.556C-6.69605 180.556 1.05061 24.556 1.05061 24.556Z" fill="#02145E"/>
<path d="M7.96928 29.6467C7.96928 29.6467 97.344 -21.552 197.892 29.6467C197.892 29.6467 205.163 177.365 101.596 232.077C1.04794 176.217 7.96928 29.6467 7.96928 29.6467Z" stroke="#FFCA23" stroke-width="3"/>
<path fill-rule="evenodd" clip-rule="evenodd" d="M147.765 158.548V152.596L102.248 190.844V184.891L147.765 146.692V141.456L122.76 124.881C123.308 126.695 123.543 130.705 121.219 135.692C118.232 142.092 110.676 147.139 108.32 148.632C105.471 150.436 103.964 152.215 103.499 153.765C103.233 154.659 102.84 155.973 103.184 157.38C105.761 157.837 108.647 160.112 108.607 164.048C108.567 167.916 105.471 171.052 101.601 171.052C97.7359 171.052 94.5213 167.916 94.5986 164.048C94.656 161.204 96.3746 158.113 100.132 157.168C99.2226 154.271 98.8093 153.16 98.844 149.444C98.9133 142.361 106.464 136.372 106.464 136.372C111.76 131.781 115.181 127.731 115.859 123.495C116.501 119.476 114.743 114.405 114.743 114.405C116.631 115.001 117.489 115.712 118.531 116.8C119.383 117.688 120.265 119.232 120.265 119.232C121.368 115.797 121.075 113.048 120.535 110.808C119.924 108.277 118.864 105.743 116.227 103.403C113.248 100.759 110.729 100.187 110.729 100.187C111.416 101.581 111.879 103.457 111.52 107.376C111.156 111.36 110.125 113.601 107.444 117.224C104.944 120.609 99.9106 124.715 96.9013 128.824C94.1146 132.615 92.9373 136.045 92.7626 139.009C92.5013 143.544 94.3666 148.381 94.3666 148.381C92.5706 147.385 90.476 145.46 89.128 142.868C87.624 139.981 86.864 137.489 86.764 132.699C86.6786 128.508 88.2586 122.517 91.6226 118.349C93.9693 115.436 99.692 109.875 101.789 105.483C103.88 101.095 103.583 98.6974 103.583 96.9014C103.583 95.108 102.703 92.456 102.703 92.456C103.94 92.6854 105.599 93.76 106.112 94.212C107.016 95.0054 107.799 95.784 107.799 95.784C107.991 94.452 108.128 92.184 107.529 89.1493C106.636 84.604 104.541 81.9547 101.608 79.6774C98.3853 77.1747 95.4146 77.3827 95.4146 77.3827C96.7266 79.048 97.6333 80.8374 98.12 83.496C98.5773 86.0267 98.5346 89.0454 97.1986 92.1174C95.5786 95.8387 91.3066 99.136 88.1226 102.288C84.8773 105.499 81.948 108.86 79.744 113.423C77.0933 118.9 76.8639 122.947 77.8319 128.371C78.9639 134.667 82.4119 138.688 82.4119 138.688C79.8653 137.725 77.6386 136.131 76.1733 134.52C74.6906 132.891 73.716 131.111 73.1573 129.513L56.156 141.103L56.132 158.544L101.92 197.005L114.825 186.18L126.009 176.796L147.765 158.548Z" fill="#FFCA23"/>
<path fill-rule="evenodd" clip-rule="evenodd" d="M74.7253 65.2974C74.7253 62.2694 73.936 60.3534 72.264 58.268L68.0413 61.8107C68.96 62.9107 69.128 63.6347 69.1693 65.316C69.252 68.64 66.5067 71.2854 63.22 71.2854C59.9347 71.2854 57.2547 68.6 57.2707 65.316C57.2733 64.792 57.392 64.0413 57.544 63.408L53.1426 59.7094C52.444 60.8574 51.82 62.0307 51.7626 65.2974C51.6533 71.5414 56.888 76.7454 63.2106 76.7454C69.532 76.7454 74.7253 71.6187 74.7253 65.2974" fill="white"/>
<path fill-rule="evenodd" clip-rule="evenodd" d="M80.4773 51.3787V49.1307L63.2946 63.5707V61.324L80.4773 46.9027V44.9253L71.0373 38.6694C71.2453 39.3534 71.3333 40.8667 70.456 42.7494C69.328 45.164 66.4759 47.072 65.5853 47.6347C64.5106 48.3147 63.9426 48.9867 63.7666 49.5734C63.6653 49.9107 63.5173 50.4054 63.6466 50.936C64.6213 51.1107 65.7093 51.968 65.6946 53.4547C65.6799 54.9147 64.5106 56.0987 63.0493 56.0987C61.5906 56.0987 60.3773 54.9147 60.4066 53.4547C60.4279 52.3813 61.0773 51.2134 62.4946 50.8587C62.152 49.764 61.9959 49.344 62.0093 47.9414C62.0359 45.2694 64.8853 43.0067 64.8853 43.0067C66.8853 41.272 68.1759 39.744 68.4306 38.144C68.6746 36.6293 68.012 34.7133 68.012 34.7133C68.7226 34.9387 69.0466 35.2067 69.4413 35.6174C69.7639 35.9534 70.0946 36.5347 70.0946 36.5347C70.5133 35.24 70.4026 34.2 70.1973 33.3547C69.968 32.4 69.568 31.4427 68.5706 30.5587C67.4466 29.5627 66.496 29.3453 66.496 29.3453C66.7546 29.8707 66.9306 30.5787 66.7946 32.0587C66.656 33.5627 66.2666 34.4093 65.2546 35.776C64.3106 37.056 62.4119 38.6053 61.2759 40.156C60.2226 41.588 59.7786 42.8827 59.7119 44.0027C59.6159 45.7147 60.3186 47.5413 60.3186 47.5413C59.64 47.164 58.852 46.436 58.3413 45.4587C57.772 44.368 57.4866 43.428 57.4493 41.6187C57.416 40.0374 58.0133 37.776 59.2826 36.2013C60.168 35.1027 62.3293 33.0014 63.1213 31.344C63.9106 29.688 63.7973 28.784 63.7973 28.1054C63.7973 27.428 63.4653 26.4267 63.4653 26.4267C63.9319 26.5134 64.5599 26.9187 64.7506 27.0894C65.0933 27.3894 65.3893 27.684 65.3893 27.684C65.4613 27.18 65.5133 26.3254 65.288 25.1774C64.9506 23.4627 64.1586 22.464 63.052 21.6027C61.836 20.6574 60.7133 20.7374 60.7133 20.7374C61.2093 21.3654 61.5506 22.0414 61.7346 23.044C61.9093 24 61.8933 25.1387 61.3879 26.2987C60.7759 27.704 59.164 28.948 57.9613 30.1387C56.7373 31.3507 55.6306 32.62 54.7986 34.3414C53.7986 36.4107 53.7106 37.9387 54.076 39.9854C54.504 42.3627 55.8053 43.8814 55.8053 43.8814C54.844 43.5174 54.0026 42.916 53.4506 42.3067C52.8893 41.6907 52.524 41.02 52.312 40.416L45.8933 44.7933L45.8839 51.376L63.1719 65.896L68.0413 61.8107L72.2639 58.268L80.4773 51.3787Z" fill="#FFCA23"/>
<path fill-rule="evenodd" clip-rule="evenodd" d="M174.105 61.1254V56.4347H181.66V52.516H174.105V48.2413H182.251V44.3227H168.584V65.044H182.325V61.1254H174.105Z" fill="white"/>
<path fill-rule="evenodd" clip-rule="evenodd" d="M155.684 44.3027H150.163V65.024H155.684V44.3027Z" fill="white"/>
<path fill-rule="evenodd" clip-rule="evenodd" d="M99.5573 60.92H91.744V44.2947H86.2226V65.0173H99.5573V60.92Z" fill="white"/>
<path fill-rule="evenodd" clip-rule="evenodd" d="M129.4 65.0387H134.92V48.4134H140.027V44.316H124.293V48.4134H129.4V65.0387Z" fill="white"/>
<path fill-rule="evenodd" clip-rule="evenodd" d="M114.127 44.304H108.605V65.0267H114.127V44.304Z" fill="white"/>
<path fill-rule="evenodd" clip-rule="evenodd" d="M33.9013 56.184L32.4626 56.176V48.1894H33.9013C35.8213 48.1894 37.4853 50.016 37.4853 52.144C37.4853 54.332 35.8213 56.184 33.9013 56.184ZM33.5319 44.2974H26.9399V65.0214H32.4626V60.3827L34.1239 60.3774C39.6639 60.504 42.9013 56.4987 42.824 52.2334C42.74 47.5747 39.8533 44.2974 33.5319 44.2974" fill="white"/>
</svg>
