<svg xmlns="http://www.w3.org/2000/svg" viewBox="0 0 163.86 31.27"><defs><style>.cls-1{fill:#fff;}</style></defs><title>Kamernet Logo</title><g id="Layer_2" data-name="Layer 2"><g id="Layer_1-2" data-name="Layer 1"><path class="cls-1" d="M22.9,28.05,20,31.27,4.19,16.57V26.73H0V1.41H4.19V11.46L19.27,0c1,1.47,1.88,2.59,2.51,3.35L8,14Z"/><path class="cls-1" d="M43.18,23q-.95.84-3.16,2.86a30.76,30.76,0,0,1-3.23-5.1,13.77,13.77,0,0,1-5.11,5.82,11.5,11.5,0,0,1-6.36,2.25c-.58,0-1.19-.43-1.82-1.29a3.42,3.42,0,0,1-.88-1.76,25.58,25.58,0,0,1,2.13-9.48q2.67-6.66,6.71-7.08a6.54,6.54,0,0,0-2.71-2.36,8.08,8.08,0,0,0-3.05-.46,3.18,3.18,0,0,0-1,.11s0-1.41,0-4.3H28.1c2.06,0,4,1,5.72,3.09a24.11,24.11,0,0,1,3.73,6.2q1,2.52,2,5A28.66,28.66,0,0,0,43.18,23Zm-9-8.18a3.07,3.07,0,0,0-.68-1.64,7,7,0,0,0-4.91,4.45A32.34,32.34,0,0,0,27.15,24q2.75-.6,5-4A9.59,9.59,0,0,0,34.23,14.78Z"/><path class="cls-1" d="M72.58,12.76l-1.9,3.81-9.91-5.08a6,6,0,0,0-.41,2.43q0,.64.09,1.92c.07.85.1,1.47.1,1.88q0,3.91-3.69,4.56l-8-6.21V22.7c.1.84.25,2.08.45,3.73l-4.6.46V11.65l3.46-1.44,8.26,5.9V7.92L59.56,6Z"/><path class="cls-1" d="M88,25.86c-.13.68-.5,2.07-1.11,4.15a20.94,20.94,0,0,1-9.94-5.37,12.19,12.19,0,0,1-3.65-8.8,12,12,0,0,1,2.59-7.2,11.44,11.44,0,0,1,7.27-4.76c.13.44.4,1.87.8,4.31Q82,8.19,80,10.38a7.7,7.7,0,0,0-2.25,4.36c.23,0,1.65-.15,4.27-.54s4-.57,4-.57h1c.17,1.48.39,2.85.64,4.12q-3,.45-9.14,1.52Q80.32,23.92,88,25.86Z"/><path class="cls-1" d="M105,10.63h-.61c-1.9,0-3.81.92-5.71,2.77a10.58,10.58,0,0,0-3.35,5.87,13.75,13.75,0,0,0,.15,2.51q.27,2.17.27,2.25v4.11H91.4v-5.6a37,37,0,0,0-1.07-8.68,19.19,19.19,0,0,0-1.41-4.19,26.72,26.72,0,0,1,3.35-2.55,7.25,7.25,0,0,1,1.14,2.4,24,24,0,0,0,.84,2.4,12.56,12.56,0,0,1,4.36-3.81,10.78,10.78,0,0,1,5.12-1.75H105Z"/><path class="cls-1" d="M130.77,5.22l-1.1,20c-.85.31-2.06.79-3.65,1.45L114.62,15l-4,12.66-4-1.25q1.71-5.67,4.83-16.15c.31-.12,1.47-.45,3.5-1L125.55,20l.92-14.73A28,28,0,0,0,130.77,5.22Z"/><path class="cls-1" d="M147.91,25.86c-.13.68-.5,2.07-1.11,4.15a20.94,20.94,0,0,1-9.94-5.37,12.19,12.19,0,0,1-3.65-8.8,12,12,0,0,1,2.59-7.2,11.44,11.44,0,0,1,7.27-4.76c.13.44.39,1.87.8,4.31q-1.91,0-3.92,2.19a7.7,7.7,0,0,0-2.25,4.36c.23,0,1.65-.15,4.27-.54s4-.57,4-.57h1c.17,1.48.39,2.85.64,4.12q-3,.45-9.14,1.52C139.66,22.37,142.8,24.56,147.91,25.86Z"/><path class="cls-1" d="M163.86,28.26c-.15.1-1.2,1-3.16,2.66a59.84,59.84,0,0,1-6.32-7.65q-2.74-4.23-2.55-7.66a10.63,10.63,0,0,0-3.69.46l-.8-4.26c1.11-.21,2.56-.52,4.34-1V2.36h4.26v7.73c.91-.1,2.41-.37,4.5-.8a37.12,37.12,0,0,0,.8,4.31l-5.3.91v1.83Q155.94,19.58,163.86,28.26Z"/></g></g></svg>