<?xml version="1.0" encoding="UTF-8" standalone="no"?>

<svg id="konnektid-logo" width="251" height="38" version="1.1" viewBox="0 0 251 38"
     data-reactid=".1422rfrwmbk.1.0.0.1.0.0.0.0.1">
    <path id="konnektid-k"
          d="m 25.293,0.484 h -5.314 c -0.498,0 -0.832,0.218 -1.014,0.646 L 14.08,12.648 V 1.24 c 0,-0.503 -0.254,-0.756 -0.746,-0.756 H 8.598 c -0.497,0 -0.746,0.252 -0.746,0.756 v 35.64 c 0,0.498 0.249,0.753 0.746,0.753 h 4.736 c 0.492,0 0.746,-0.255 0.746,-0.753 v -9.646 l 0.898,-2.238 3.878,11.989 c 0.073,0.181 0.199,0.333 0.376,0.453 0.173,0.13 0.37,0.194 0.587,0.194 h 5.261 c 0.212,0 0.372,-0.089 0.479,-0.244 0.11,-0.166 0.123,-0.332 0.054,-0.509 L 18.594,16.883 25.719,1.24 c 0.072,-0.181 0.072,-0.346 0,-0.515 C 25.648,0.57 25.507,0.484 25.293,0.484"
          data-reactid=".1422rfrwmbk.1.0.0.1.0.0.0.0.1.0"></path>
    <path id="konnektid-o"
          d="M 41.142,2.082 C 40.54,1.484 39.83,0.998 39.019,0.654 38.203,0.298 37.328,0.12 36.413,0.12 h -2.021 c -0.926,0 -1.794,0.178 -2.604,0.534 -0.819,0.344 -1.53,0.831 -2.13,1.428 -0.604,0.604 -1.087,1.306 -1.44,2.114 -0.347,0.824 -0.529,1.695 -0.529,2.607 v 24.509 c 0,0.919 0.182,1.785 0.529,2.608 0.354,0.807 0.836,1.521 1.44,2.114 0.6,0.608 1.312,1.086 2.13,1.429 0.81,0.357 1.678,0.537 2.604,0.537 h 2.021 c 0.915,0 1.79,-0.18 2.606,-0.537 0.811,-0.343 1.521,-0.82 2.123,-1.429 0.599,-0.594 1.078,-1.308 1.433,-2.114 0.35,-0.823 0.536,-1.689 0.536,-2.608 V 6.803 C 43.111,5.891 42.925,5.02 42.575,4.196 42.22,3.387 41.741,2.686 41.142,2.082 M 36.89,31.05 c 0,0.356 -0.126,0.653 -0.377,0.905 -0.245,0.251 -0.549,0.367 -0.901,0.367 h -0.427 c -0.354,0 -0.658,-0.116 -0.901,-0.367 C 34.03,31.703 33.909,31.406 33.909,31.05 V 7.067 c 0,-0.346 0.121,-0.653 0.375,-0.896 0.243,-0.248 0.546,-0.378 0.901,-0.378 h 0.427 c 0.353,0 0.656,0.13 0.901,0.378 0.251,0.243 0.377,0.551 0.377,0.896 V 31.05 z"
          data-reactid=".1422rfrwmbk.1.0.0.1.0.0.0.0.1.1"></path>
    <path id="konnektid-n"
          d="m 85.431,0.484 h -4.727 c -0.5,0 -0.745,0.252 -0.745,0.756 V 18.212 L 74.426,1.177 C 74.354,0.997 74.224,0.845 74.025,0.702 73.834,0.557 73.627,0.484 73.418,0.484 h -3.513 c -0.497,0 -0.744,0.252 -0.744,0.756 v 35.64 c 0,0.498 0.247,0.753 0.744,0.753 h 4.735 c 0.496,0 0.743,-0.255 0.743,-0.753 v -17.5 l 5.64,17.559 c 0.069,0.181 0.202,0.329 0.398,0.475 0.188,0.145 0.398,0.219 0.608,0.219 h 3.401 c 0.497,0 0.746,-0.255 0.746,-0.753 V 1.24 C 86.177,0.736 85.928,0.484 85.431,0.484"
          data-reactid=".1422rfrwmbk.1.0.0.1.0.0.0.0.1.2"></path>
    <path id="konnektid-e"
          d="M 103.249,0.484 H 91.708 c -0.5,0 -0.743,0.252 -0.743,0.756 v 35.64 c 0,0.498 0.242,0.753 0.743,0.753 h 11.541 c 0.492,0 0.744,-0.255 0.744,-0.753 v -4.721 c 0,-0.49 -0.252,-0.742 -0.744,-0.742 H 97.181 V 20.549 h 5.267 c 0.498,0 0.747,-0.252 0.747,-0.74 v -4.724 c 0,-0.496 -0.249,-0.751 -0.747,-0.751 H 97.181 V 6.696 h 6.068 c 0.492,0 0.744,-0.25 0.744,-0.737 V 1.24 c 0,-0.504 -0.252,-0.756 -0.744,-0.756"
          data-reactid=".1422rfrwmbk.1.0.0.1.0.0.0.0.1.3"></path>
    <path id="konnektid-nn"
          d="m 63.633,0.484 h -4.736 c -0.493,0 -0.741,0.252 -0.741,0.756 V 18.212 L 52.622,1.177 C 52.549,0.997 52.419,0.845 52.233,0.702 52.031,0.557 51.83,0.484 51.614,0.484 h -3.508 c -0.499,0 -0.747,0.252 -0.747,0.756 v 35.64 c 0,0.498 0.248,0.753 0.747,0.753 h 4.734 c 0.492,0 0.746,-0.255 0.746,-0.753 v -17.5 l 5.633,17.559 c 0.072,0.181 0.21,0.329 0.399,0.475 0.195,0.145 0.396,0.219 0.614,0.219 h 3.402 c 0.496,0 0.747,-0.255 0.747,-0.753 V 1.24 C 64.38,0.736 64.129,0.484 63.633,0.484"
          data-reactid=".1422rfrwmbk.1.0.0.1.0.0.0.0.1.4"></path>
    <path id="konnektid-kk"
          d="m 125.952,0.484 h -5.321 c -0.492,0 -0.832,0.218 -1.007,0.646 l -4.892,11.518 V 1.24 c 0,-0.503 -0.255,-0.756 -0.747,-0.756 h -4.734 c -0.495,0 -0.739,0.252 -0.739,0.756 v 35.64 c 0,0.498 0.244,0.753 0.739,0.753 h 4.734 c 0.492,0 0.747,-0.255 0.747,-0.753 v -9.646 l 0.901,-2.238 3.882,11.989 c 0.072,0.181 0.2,0.333 0.369,0.453 0.182,0.13 0.374,0.194 0.596,0.194 h 5.254 c 0.218,0 0.375,-0.089 0.487,-0.244 0.101,-0.166 0.118,-0.332 0.055,-0.509 l -7.029,-19.996 7.129,-15.645 c 0.067,-0.181 0.067,-0.346 0,-0.515 -0.073,-0.153 -0.21,-0.239 -0.424,-0.239"
          data-reactid=".1422rfrwmbk.1.0.0.1.0.0.0.0.1.5"></path>
    <path id="konnektid-tid"
          d="m 180.3,1.847 c -0.197,-0.457 -0.574,-0.85 -1.053,-1.088 l -0.069,-0.033 c -0.267,-0.108 -0.535,-0.167 -0.802,-0.167 -1.524,0 -2.118,1.584 -2.433,2.429 l -0.011,0.047 c -0.037,0.092 -0.07,0.188 -0.117,0.284 l -1.227,2.928 c -0.978,2.414 -2.461,6.018 -4.061,9.507 l -0.084,0.203 c -0.058,0.125 -0.11,0.259 -0.165,0.379 -0.372,-0.073 -0.784,-0.145 -1.3,-0.154 -2.267,-0.074 -4.6,0.585 -6.956,1.918 -1.653,0.901 -3.246,2.135 -4.732,3.698 -1.146,1.202 -2.131,2.411 -2.919,3.613 -0.341,0.286 -0.622,0.644 -0.827,0.908 l -0.019,0.021 c -0.055,0.071 -0.104,0.131 -0.143,0.18 l -0.031,0.032 c -0.775,0.966 -1.622,1.941 -2.517,2.903 -0.952,1.024 -1.849,1.976 -2.874,2.885 -0.264,0.209 -0.509,0.41 -0.764,0.59 0.015,-0.084 0.03,-0.155 0.055,-0.226 0.276,-1.128 0.69,-2.319 1.299,-3.759 1.123,-2.797 2.476,-5.617 4.138,-8.648 l 0.02,-0.049 c 0.028,-0.06 0.057,-0.106 0.094,-0.166 l 0.021,-0.036 c 0.115,-0.191 0.26,-0.449 0.354,-0.738 0.205,-0.499 0.194,-1.05 -0.021,-1.548 -0.175,-0.381 -0.459,-0.714 -0.838,-0.938 l -0.147,-0.083 c -0.13,-0.073 -0.274,-0.131 -0.42,-0.171 l -0.103,-0.021 c -0.129,-0.026 -0.26,-0.033 -0.381,-0.033 -0.379,0 -1.103,0.105 -1.711,0.904 l -1.458,1.723 -4.615,5.268 c 0,0 -2.02,2.313 -3.923,4.487 v -22.2 h 3.771 c 0.501,0 0.746,-0.25 0.746,-0.739 V 1.241 c 0,-0.503 -0.245,-0.756 -0.746,-0.756 h -13.717 c -0.493,0 -0.744,0.252 -0.744,0.756 v 4.717 c 0,0.489 0.251,0.739 0.744,0.739 h 3.727 V 36.88 c 0,0.216 0.08,0.389 0.239,0.534 0.154,0.145 0.328,0.219 0.5,0.219 h 4.734 c 0.496,0 0.746,-0.255 0.746,-0.753 v -1.665 c 0.107,-0.082 0.216,-0.181 0.31,-0.283 l 1.204,-1.478 2.429,-2.843 c -0.353,1.116 -0.656,2.453 -0.47,3.889 0.141,1.322 0.765,2.355 1.718,2.832 0.413,0.227 0.878,0.332 1.382,0.332 1.064,0 2.072,-0.509 2.743,-0.904 1.289,-0.761 2.392,-1.785 3.38,-2.769 l 0.038,-0.039 c 0.016,-0.011 0.024,-0.021 0.035,-0.032 0.396,1.344 1.244,2.366 2.477,2.949 0.704,0.367 1.497,0.545 2.353,0.545 1.261,0 2.65,-0.394 4.118,-1.149 1.089,-0.552 2.108,-1.252 3.109,-2.143 0.13,0.827 0.432,1.545 0.907,2.129 0.677,0.83 1.641,1.293 2.711,1.293 0.747,0 1.535,-0.212 2.267,-0.629 1.44,-0.788 2.62,-2.044 3.669,-3.164 l 0.273,-0.286 c 1.073,-1.199 2.485,-2.864 3.774,-4.459 0.18,-0.216 0.318,-0.382 0.448,-0.523 l 0.004,-0.014 c 0.304,-0.347 0.562,-0.63 0.681,-1.113 0.154,-0.633 0.023,-1.276 -0.366,-1.779 -0.396,-0.509 -1.02,-0.81 -1.668,-0.81 -0.604,0 -1.176,0.251 -1.586,0.729 l -2.466,2.998 -0.013,0.015 c -1.144,1.343 -2.236,2.626 -3.454,3.705 l -0.166,0.169 c -0.362,0.368 -0.654,0.633 -0.891,0.821 v -0.082 c 0,-0.633 0.102,-1.379 0.295,-2.152 0.302,-1.072 0.788,-2.656 1.425,-4.155 l 1.229,-2.779 1.413,-3.298 c 2.438,-5.235 4.673,-10.646 6.83,-15.881 l 0.561,-1.371 c 0.252,-0.525 0.269,-1.108 0.037,-1.639 m -23.108,31.416 c -0.188,0 -0.343,-0.032 -0.467,-0.095 l -0.166,-0.071 c -0.083,-0.024 -0.164,-0.178 -0.214,-0.393 l -0.021,-0.096 c -0.245,-0.799 -0.02,-1.997 0.587,-3.225 l 0.018,-0.035 c 0.756,-1.605 1.945,-3.238 3.739,-5.102 1.218,-1.213 2.511,-2.156 3.85,-2.8 l 0.048,-0.021 c 1.271,-0.689 2.658,-1.072 3.897,-1.097 -1.044,2.167 -2.054,4.059 -3.078,5.774 -1.545,2.626 -3.74,5.795 -7.007,6.919 -0.353,0.111 -0.806,0.242 -1.186,0.242"
          data-reactid=".1422rfrwmbk.1.0.0.1.0.0.0.0.1.6"></path>
    <path id="konnektid-dot"
          d="m 154.055,9.909 0.041,0.022 c 0.355,0.18 0.729,0.274 1.118,0.274 1.403,0 2.441,-1.189 2.741,-2.367 0.32,-1.236 -0.155,-2.426 -1.216,-2.996 l -0.043,-0.026 c -0.352,-0.177 -0.729,-0.259 -1.107,-0.259 -1.417,0 -2.452,1.171 -2.751,2.353 -0.318,1.253 0.161,2.43 1.217,2.999"
          data-reactid=".1422rfrwmbk.1.0.0.1.0.0.0.0.1.7"></path>
    <path id="konnektid-left"
          d="m 203.424,23.929 c -1.342,-5.168 -0.58,-10.533 2.142,-15.104 1.544,-2.584 3.655,-4.746 6.118,-6.365 -8.15,-3.821 -18.062,-1.285 -23.171,6.346 -1.562,2.317 -2.511,4.877 -2.895,7.468 -0.864,0.965 -3.15,2.261 -3.15,2.261 0,0 2.391,1.487 3.067,2.322 0.562,5.281 3.392,10.288 8.192,13.488 5.627,3.759 12.542,4.052 18.219,1.396 -4.238,-2.751 -7.251,-6.915 -8.522,-11.812"
          data-reactid=".1422rfrwmbk.1.0.0.1.0.0.0.0.1.8"></path>
    <path id="konnektid-right"
          d="M 240.716,16.383 C 239.88,11.137 236.78,6.271 231.825,3.335 c -5.499,-3.272 -11.987,-3.39 -17.352,-0.903 -3.151,1.54 -5.832,3.971 -7.704,7.109 -2.53,4.244 -3.236,9.233 -1.991,14.042 1.249,4.809 4.306,8.864 8.605,11.413 0.901,0.534 1.846,0.983 2.814,1.357 8.2,2.992 17.592,-0.095 22.183,-7.774 1.43,-2.404 2.243,-5.01 2.49,-7.627 0.81,-1 3.025,-2.418 3.025,-2.418 0,0 -2.461,-1.355 -3.179,-2.151"
          data-reactid=".1422rfrwmbk.1.0.0.1.0.0.0.0.1.9"></path>
</svg>