<?xml version="1.0" encoding="UTF-8"?>
<svg width="564px" height="295px" viewBox="0 0 564 295" xmlns="http://www.w3.org/2000/svg" xmlns:xlink="http://www.w3.org/1999/xlink" version="1.1">
 <!-- Generated by Pixelmator Pro 2.0.3 -->
 <path id="Path" d="M94.847 179.996 C90.368 179.996 86.866 183.129 86.866 187.697 86.866 192.273 90.387 195.388 94.847 195.388 99.302 195.388 102.83 192.248 102.83 187.697 102.831 183.129 99.323 179.996 94.847 179.996 Z M94.847 193.185 C91.656 193.185 89.287 190.852 89.287 187.698 89.287 184.55 91.638 182.198 94.847 182.198 98.021 182.198 100.406 184.584 100.406 187.698 100.407 190.796 97.997 193.185 94.847 193.185 Z" fill="#000000" fill-opacity="1" stroke="none"/>
 <path id="Path-1" d="M172.526 153.055 L133.665 153.055 138.081 85.507 112.843 153.055 76.759 153.055 134.017 0.379 172.414 0.379 167.981 68.851 193.697 0.379 229.787 0.379 Z" fill="#000000" fill-opacity="1" stroke="none"/>
 <path id="Path-2" d="M177.213 153.055 L234.469 0.379 270.555 0.379 213.3 153.055 Z" fill="#000000" fill-opacity="1" stroke="none"/>
 <path id="Path-3" d="M72.598 100.428 C22.168 159.649 -25.401 238.446 16.617 274.729 57.332 309.893 108.223 289.072 142.921 275.194 177.624 261.312 561.158 94.76 561.158 94.76 564.858 92.908 564.169 90.594 559.538 91.75 557.675 92.216 141.998 204.867 141.998 204.867 89.253 219.676 29.108 187.403 72.598 100.428 Z" fill="#000000" fill-opacity="1" stroke="none"/>
 <path id="Path-4" d="M96.208 188.241 C97.328 188.185 98.203 187.606 98.203 186.058 98.203 184.06 96.898 183.556 94.714 183.556 L91.579 183.556 91.579 191.841 93.672 191.841 93.672 188.314 94.025 188.314 95.929 191.841 98.333 191.841 Z M94.865 186.895 L93.676 186.895 93.676 184.974 94.681 184.974 C95.298 184.974 96.006 185.048 96.006 185.851 96.005 186.712 95.594 186.895 94.865 186.895 Z" fill="#000000" fill-opacity="1" stroke="none"/>
 <path id="Path-5" d="M457.607 -0.086 C453.128 -0.086 449.623 3.049 449.623 7.617 449.623 12.186 453.149 15.301 457.607 15.301 462.061 15.301 465.588 12.166 465.588 7.617 465.595 3.049 462.087 -0.086 457.607 -0.086 Z M457.607 13.105 C454.414 13.105 452.044 10.773 452.044 7.62 452.044 4.468 454.395 2.119 457.607 2.119 460.778 2.119 463.166 4.505 463.166 7.62 463.165 10.716 460.762 13.105 457.607 13.105 Z" fill="#000000" fill-opacity="1" stroke="none"/>
 <path id="Path-6" d="M458.972 8.157 C460.088 8.103 460.969 7.525 460.969 5.974 460.969 3.977 459.657 3.474 457.478 3.474 L454.346 3.474 454.346 11.757 456.432 11.757 456.432 8.232 456.787 8.232 458.688 11.757 461.096 11.757 Z M457.624 6.816 L456.432 6.816 456.432 4.893 457.444 4.893 C458.055 4.893 458.765 4.968 458.765 5.771 458.765 6.629 458.354 6.816 457.624 6.816 Z" fill="#000000" fill-opacity="1" stroke="none"/>
 <path id="Path-7" d="M433.829 25.826 L443.525 0.379 371.214 0.379 370.891 0.379 333.413 0.379 295.609 46.183 313.064 0.379 276.512 0.379 219.714 153.054 255.801 153.054 280.052 89.206 281.709 153.054 392.439 152.812 402.98 123.443 360.879 123.443 374.711 86.434 409.407 86.434 420.087 57.98 385.389 57.98 397.285 25.826 Z M317.514 142.873 L315.201 63.301 369.764 3.395 Z" fill="#000000" fill-opacity="1" stroke="none"/>
</svg>
