<!-- Concept D: "The Spark Network" - Square Icon -->
<svg width="256" height="256" viewBox="0 0 256 256" fill="none" xmlns="http://www.w3.org/2000/svg">
  <rect width="256" height="256" rx="48" fill="#0A0A0A"/>

  <!-- Main nodes (bright orange) -->
  <circle cx="80" cy="85" r="10" fill="#FF4500" opacity="1"/>
  <circle cx="175" cy="100" r="11" fill="#FF4500" opacity="1"/>
  <circle cx="130" cy="170" r="9" fill="#FF4500" opacity="1"/>
  <circle cx="90" cy="155" r="8" fill="#FF4500" opacity="0.95"/>

  <!-- Flowing path from node 1 to node 2 (curved upward) -->
  <circle cx="95" cy="88" r="5" fill="#95C5EF" opacity="0.95"/>
  <circle cx="110" cy="87" r="5" fill="#95C5EF" opacity="0.9"/>
  <circle cx="125" cy="85" r="5" fill="#95C5EF" opacity="0.85"/>
  <circle cx="140" cy="87" r="5" fill="#95C5EF" opacity="0.8"/>
  <circle cx="155" cy="92" r="5" fill="#95C5EF" opacity="0.85"/>
  <circle cx="168" cy="97" r="5" fill="#95C5EF" opacity="0.9"/>

  <!-- Flowing path from node 2 to node 3 (curved right then down) -->
  <circle cx="172" cy="112" r="5" fill="#95C5EF" opacity="0.9"/>
  <circle cx="168" cy="125" r="5" fill="#95C5EF" opacity="0.85"/>
  <circle cx="162" cy="138" r="5" fill="#95C5EF" opacity="0.8"/>
  <circle cx="153" cy="150" r="5" fill="#95C5EF" opacity="0.75"/>
  <circle cx="143" cy="161" r="5" fill="#95C5EF" opacity="0.8"/>
  <circle cx="135" cy="167" r="5" fill="#95C5EF" opacity="0.85"/>

  <!-- Flowing path from node 3 to node 4 (curved left) -->
  <circle cx="120" cy="168" r="5" fill="#95C5EF" opacity="0.85"/>
  <circle cx="110" cy="165" r="5" fill="#95C5EF" opacity="0.8"/>
  <circle cx="100" cy="160" r="5" fill="#95C5EF" opacity="0.85"/>

  <!-- Flowing path from node 1 to node 4 (curved down-left) -->
  <circle cx="82" cy="97" r="4" fill="#95C5EF" opacity="0.75"/>
  <circle cx="83" cy="110" r="4" fill="#95C5EF" opacity="0.7"/>
  <circle cx="85" cy="123" r="4" fill="#95C5EF" opacity="0.65"/>
  <circle cx="87" cy="136" r="4" fill="#95C5EF" opacity="0.7"/>
  <circle cx="89" cy="148" r="4" fill="#95C5EF" opacity="0.75"/>

  <!-- Secondary connection: node 2 to center area -->
  <circle cx="165" cy="110" r="4" fill="#95C5EF" opacity="0.7"/>
  <circle cx="155" cy="118" r="4" fill="#95C5EF" opacity="0.65"/>
  <circle cx="145" cy="124" r="4" fill="#95C5EF" opacity="0.6"/>

  <!-- Ambient flow dots (suggesting energy) -->
  <circle cx="70" cy="80" r="3" fill="#95C5EF" opacity="0.4"/>
  <circle cx="185" cy="95" r="3" fill="#95C5EF" opacity="0.4"/>
  <circle cx="135" cy="180" r="3" fill="#95C5EF" opacity="0.4"/>
  <circle cx="80" cy="165" r="3" fill="#95C5EF" opacity="0.35"/>
  <circle cx="180" cy="130" r="2" fill="#95C5EF" opacity="0.3"/>
  <circle cx="105" cy="175" r="2" fill="#95C5EF" opacity="0.3"/>
</svg>
